<svg width="28" height="22" viewBox="0 0 28 22" fill="none" xmlns="http://www.w3.org/2000/svg">
<path d="M28 2.60657C26.9687 3.04789 25.8631 3.34579 24.7003 3.4837C25.8859 2.79689 26.8001 1.70737 27.2286 0.413741C26.1202 1.0509 24.8917 1.51429 23.5805 1.75978C22.5291 0.678536 21.0293 0 19.3866 0C16.2126 0 13.6443 2.48521 13.6443 5.54965C13.6443 5.98546 13.6929 6.41023 13.7929 6.8157C9.01622 6.58676 4.7738 4.37462 1.94266 1.01229C1.45128 1.83149 1.1656 2.78862 1.1656 3.8009C1.1656 5.72618 2.17978 7.42803 3.72248 8.42377C2.78543 8.40171 1.89409 8.14794 1.12274 7.73144C1.12274 7.75351 1.12274 7.77833 1.12274 7.8004C1.12274 10.4925 3.1054 12.7322 5.7337 13.2425C5.25375 13.3694 4.74237 13.4383 4.21957 13.4383C3.85104 13.4383 3.49107 13.4052 3.13968 13.3363C3.86818 15.5429 5.99367 17.1454 8.5077 17.1923C6.54505 18.6818 4.0653 19.57 1.37129 19.57C0.908479 19.57 0.451383 19.5424 0 19.49C2.53403 21.0815 5.55372 22 8.79339 22C19.3666 22 25.1517 13.5404 25.1517 6.2006C25.1517 5.96063 25.146 5.72066 25.1346 5.48345C26.2488 4.69734 27.2286 3.72367 28 2.60657ZM24.5718 4.73596L24.1575 5.02834L24.1804 5.52207C24.1918 5.73997 24.1975 5.96891 24.1975 6.19784C24.1975 7.92728 23.8461 9.73671 23.1891 11.4386C22.4948 13.2259 21.4978 14.8423 20.2236 16.238C18.8581 17.7329 17.244 18.9025 15.4127 19.7217C13.4072 20.6209 11.1817 21.0732 8.79625 21.0732C7.08213 21.0732 5.39088 20.7974 3.78247 20.2595C4.37098 20.152 4.94521 19.9947 5.50801 19.8072C6.79645 19.3714 7.99347 18.737 9.07336 17.9178L11.1674 16.3317L8.50485 16.2849C6.95643 16.2573 5.55658 15.5181 4.69095 14.343C5.12519 14.3154 5.55086 14.241 5.96511 14.1306L9.5676 12.9722L5.90511 12.3488C4.15101 12.0123 2.774 10.7518 2.26834 9.15196C2.73115 9.2678 3.18253 9.31194 3.68534 9.34228C3.68534 9.34228 5.57086 9.42227 6.99643 9.33676C6.22508 8.98094 4.24242 7.66525 4.24242 7.66525C2.90827 6.79915 2.1055 5.36209 2.1055 3.80366C2.1055 3.43681 2.15407 3.06996 2.23691 2.71414C3.53678 3.99674 5.0252 5.06971 6.6936 5.89443C8.88766 6.98947 11.256 7.60181 13.73 7.72041L14.987 7.78385L14.7014 6.59779C14.6185 6.25853 14.5757 5.90547 14.5757 5.53862C14.5757 2.99549 16.7297 0.915747 19.3752 0.915747C20.6979 0.915747 21.9749 1.44809 22.8748 2.38315L23.2376 2.75552L23.7547 2.65898C24.0204 2.60657 24.2832 2.5514 24.5432 2.48245C24.4832 2.56244 24.2061 2.83275 23.8918 3.1003C23.6262 3.32924 22.8348 4.04639 22.8348 4.04639C22.8348 4.04639 23.6062 4.28084 24.0861 4.33325C24.5661 4.38566 25.1174 4.30015 25.2089 4.28636C25.046 4.416 24.7489 4.61735 24.5718 4.73596Z" fill="white"/>
</svg>
