<svg width="28" height="28" viewBox="0 0 28 28" fill="none" xmlns="http://www.w3.org/2000/svg">
<g clip-path="url(#clip0_44_3889)">
<g filter="url(#filter0_d_44_3889)">
<path fill-rule="evenodd" clip-rule="evenodd" d="M12.8 18.2778H11.8H10.9012H10.8342H10.6545H10.6184H10.3339H10.2989H10.032C9.89 18.2778 9.80602 18.1107 9.88802 17.9926C9.90464 17.9666 9.92251 17.94 9.94127 17.9121L9.9413 17.912C9.95636 17.8896 9.97198 17.8664 9.988 17.8419L10.032 17.7778C10.1208 17.6477 10.2206 17.4963 10.3277 17.328L10.3596 17.2778C10.5569 16.9657 10.7768 16.599 10.996 16.2041C11.25 15.7519 11.496 15.2691 11.694 14.7843C11.7307 14.7039 11.7607 14.6218 11.7901 14.5411L11.7901 14.5411L11.798 14.5194C11.8121 14.479 11.8264 14.4392 11.8404 14.3999C11.8802 14.289 11.9185 14.1822 11.948 14.0754C11.9807 13.9756 12.008 13.8718 12.0343 13.7717L12.052 13.7046C12.146 13.2931 12.186 12.8572 12.186 12.405C12.186 12.2278 12.178 12.0424 12.162 11.8652C12.154 11.6717 12.13 11.4781 12.106 11.2846C12.09 11.1135 12.06 10.9444 12.028 10.7672C11.988 10.5085 11.932 10.2519 11.868 9.99313L11.846 9.89538C11.8317 9.84262 11.8181 9.79059 11.8046 9.73885C11.7728 9.61677 11.7413 9.49634 11.702 9.37187C11.544 8.81572 11.362 8.27389 11.17 7.76668C11.1 7.565 11.02 7.37149 10.94 7.17798C10.8473 6.94903 10.7533 6.73644 10.6639 6.53427L10.6639 6.53424L10.6635 6.53342C10.6393 6.47865 10.6154 6.42465 10.592 6.3713C10.536 6.25721 10.488 6.15332 10.44 6.0474C10.3987 5.95541 10.3562 5.86341 10.3134 5.77417C10.3003 5.74682 10.2871 5.71973 10.274 5.69298C10.2583 5.65856 10.2416 5.62509 10.2253 5.59219L10.2212 5.58389C10.1973 5.53596 10.1744 5.48918 10.156 5.4424L9.86694 4.89834L9.86594 4.89645L9.814 4.7987C9.766 4.71111 9.84601 4.60721 9.93999 4.6337L10.0564 4.66584L10.0615 4.66723L10.7871 4.86754L11.0166 4.93088L11.8 5.14713L12.08 5.22443H12.086C12.0883 5.22443 12.09 5.22513 12.0914 5.22572C12.0923 5.22613 12.0932 5.22649 12.094 5.22649L12.376 5.30592L12.686 5.39557L12.8 5.42813V5.00139V4.99641V4.38756V4.1326C12.8 3.50721 13.292 3 13.9 3C14.204 3 14.48 3.1263 14.678 3.33202C14.876 3.53779 15 3.81889 15 4.1326V6.05557L15.228 6.12072C15.246 6.12687 15.264 6.135 15.28 6.14721C15.3017 6.1638 15.327 6.18345 15.3559 6.20581L15.3559 6.20584L15.356 6.20589C15.4014 6.24117 15.4556 6.28319 15.518 6.33057C15.5504 6.35695 15.5838 6.38567 15.6189 6.41593L15.6189 6.41593L15.6189 6.41595C15.6706 6.46042 15.7261 6.50819 15.788 6.55668C15.994 6.72572 16.24 6.9437 16.51 7.19428C16.582 7.2574 16.652 7.3226 16.716 7.38779C17.064 7.71779 17.454 8.10481 17.826 8.5326C17.93 8.65279 18.032 8.775 18.136 8.90332C18.1728 8.94947 18.2104 8.99537 18.2478 9.0411L18.2479 9.04115C18.3162 9.12459 18.384 9.20748 18.446 9.29038L18.5165 9.38562L18.5166 9.38568C18.6216 9.52713 18.7298 9.67289 18.826 9.82408C18.8504 9.86217 18.8762 9.90064 18.9021 9.93916L18.9022 9.93924L18.9022 9.93931C18.9358 9.98933 18.9695 10.0394 19 10.0889C19.152 10.3231 19.286 10.5656 19.414 10.808C19.468 10.92 19.524 11.0422 19.572 11.1624C19.714 11.4863 19.826 11.8163 19.898 12.1463C19.92 12.2176 19.936 12.295 19.944 12.3643V12.3806C19.968 12.4783 19.976 12.5822 19.984 12.6881C20.016 13.0263 20 13.3644 19.928 13.7046C19.898 13.8493 19.858 13.9857 19.81 14.1304L19.7939 14.1769L19.7939 14.1769C19.7511 14.3011 19.7071 14.4287 19.652 14.55C19.532 14.8331 19.39 15.1163 19.222 15.3811C19.168 15.4789 19.104 15.5828 19.04 15.6806C19.0058 15.7313 18.9712 15.7805 18.9372 15.8288C18.9016 15.8794 18.8668 15.9289 18.834 15.978C18.746 16.1002 18.652 16.2285 18.556 16.3426C18.47 16.4628 18.382 16.583 18.286 16.6889C18.152 16.8498 18.024 17.0026 17.89 17.1493C17.81 17.245 17.724 17.3428 17.636 17.4304C17.5623 17.5142 17.487 17.5906 17.4166 17.662L17.382 17.6972C17.248 17.8337 17.136 17.9396 17.042 18.0272L16.822 18.233C16.79 18.2615 16.748 18.2778 16.704 18.2778H16H15V19.2778V19.5043V20.5043H16H17.144C17.624 20.5043 18.08 20.3311 18.448 20.0133L18.4579 20.0045C18.6007 19.8776 19.1398 19.3988 19.774 18.6852C19.796 18.6607 19.824 18.6424 19.856 18.6343L25 17.1197L25.002 17.1191L25.1969 17.0617L25.778 16.8906C25.888 16.858 26 16.9435 26 17.0617V17.6399V17.6445V17.8654V17.8677V18.3389C26 18.4122 25.956 18.4774 25.892 18.5059C25.5 18.677 24.158 19.3044 23.6 20.0948C23.2896 20.5349 22.9952 21.0161 22.6993 21.4998L22.6992 21.4998C21.6378 23.2348 20.5579 25 18.656 25H8.50998C4.91402 25 2 22.0219 2 18.347V18.2289C2 18.1311 2.07798 18.0517 2.17399 18.0517H7.83002C7.94199 18.0517 8.02398 18.1576 8.01402 18.2696C7.97399 18.6444 8.04201 19.0274 8.216 19.3757C8.55199 20.0704 9.248 20.5043 9.99999 20.5043H11.8H12.8V19.5043V19.2778V18.2778ZM12.8 17.2778H11.5322C11.6429 17.0915 11.7562 16.8951 11.8691 16.6917C12.1324 16.2227 12.3958 15.708 12.6128 15.1794C12.6627 15.0676 12.7028 14.9575 12.729 14.8852L12.7373 14.8626L12.7398 14.8557L12.7422 14.8488C12.7504 14.8252 12.7605 14.7971 12.7718 14.7656C12.8113 14.6558 12.8652 14.5054 12.9054 14.3648C12.9453 14.24 12.9794 14.1099 13.0041 14.0158L13.0041 14.0157L13.0183 13.9619L13.0229 13.9447L13.0269 13.9274C13.1411 13.4275 13.186 12.9146 13.186 12.405C13.186 12.2069 13.1775 12 13.1601 11.799C13.1494 11.5723 13.1222 11.3532 13.1001 11.1754C13.0797 10.9665 13.0443 10.7677 13.0143 10.6015C12.9689 10.3115 12.9074 10.0315 12.8413 9.7634L12.8216 9.67583L12.8169 9.65479L12.8112 9.63398C12.8016 9.59855 12.7909 9.55741 12.7791 9.51238C12.7464 9.38705 12.7058 9.23157 12.6602 9.08523C12.496 8.50903 12.308 7.94919 12.11 7.42524C12.0316 7.20103 11.9442 6.98966 11.8684 6.80629L11.8655 6.79925C11.7667 6.55538 11.6649 6.32525 11.5753 6.12259L11.5752 6.12248L11.8139 6.18838L11.9445 6.22443H11.9485L12.1015 6.26751L12.4082 6.35621L12.4114 6.35713L12.5254 6.38969L13.8 6.7537V5.42813V4.1326C13.8 4.08608 13.8174 4.05112 13.8395 4.02835C13.861 4.00616 13.8816 4 13.9 4C13.9123 4 13.9218 4.00234 13.93 4.00592C13.9389 4.00977 13.9485 4.0161 13.9575 4.0255C13.9842 4.05332 14 4.08891 14 4.1326V6.05557V6.80988L14.7253 7.0171L14.7966 7.03747C14.8307 7.0638 14.8667 7.09153 14.8977 7.11516C14.9152 7.12966 14.934 7.14585 14.9613 7.16936L14.9614 7.16944L14.9927 7.19631C15.0377 7.23496 15.0954 7.28401 15.1614 7.33608C15.3446 7.48686 15.5717 7.68773 15.8298 7.92726L15.8401 7.93684L15.8507 7.94613C15.9084 7.99674 15.9596 8.0447 16.0024 8.08838L16.015 8.10113L16.0279 8.11343C16.3643 8.4324 16.7284 8.79446 17.0706 9.18784C17.1657 9.29779 17.2598 9.41047 17.3568 9.53007C17.4118 9.59905 17.4555 9.65228 17.4938 9.69885L17.4938 9.69886C17.5491 9.76619 17.593 9.81959 17.6431 9.88653L17.7223 9.9936C17.825 10.1321 17.9072 10.2428 17.9824 10.3611L17.9834 10.3626C18.0442 10.4577 18.0674 10.4909 18.0856 10.5169C18.1025 10.541 18.1149 10.5588 18.1488 10.6137L18.1548 10.6235L18.1611 10.6332C18.2859 10.8255 18.4011 11.0319 18.521 11.2584C18.5667 11.3539 18.6091 11.4476 18.6433 11.5333L18.6495 11.5487L18.6561 11.5639C18.7759 11.8371 18.8652 12.1039 18.921 12.3594L18.93 12.4007L18.9424 12.4411L18.944 12.4466V12.5015L18.9725 12.6176C18.9725 12.6176 18.9743 12.626 18.9767 12.6472C18.98 12.6751 18.9826 12.7075 18.9868 12.7633L18.9875 12.7728L18.9884 12.7823C19.0114 13.0252 18.9996 13.2616 18.9497 13.4976L18.9489 13.5014C18.9298 13.5933 18.9029 13.6884 18.8629 13.8094L18.8504 13.8456C18.8042 13.9789 18.776 14.0606 18.7415 14.1365L18.7362 14.1481L18.7313 14.1598C18.6279 14.4038 18.5102 14.6363 18.3776 14.8454L18.3613 14.8711L18.3466 14.8977C18.3089 14.9659 18.2603 15.0456 18.207 15.1272C18.1797 15.1676 18.1511 15.2082 18.1168 15.257L18.116 15.2582C18.0854 15.3017 18.049 15.3534 18.013 15.4068C17.9294 15.5227 17.8577 15.6194 17.7909 15.6987L17.7656 15.7287L17.7428 15.7607C17.6564 15.8814 17.5982 15.9588 17.5451 16.0173L17.531 16.0328L17.5176 16.049C17.3828 16.2109 17.2683 16.3472 17.1517 16.4748L17.1368 16.4911L17.1225 16.5082C17.0522 16.5924 16.9881 16.6644 16.9306 16.7215L16.907 16.745L16.8851 16.77C16.8314 16.831 16.7778 16.8854 16.707 16.9574L16.6684 16.9966L16.6683 16.9967C16.5575 17.1097 16.4633 17.1994 16.3794 17.2778H15H14V18.2778V20.5043V21.5043H15H17.144C17.8706 21.5043 18.557 21.2404 19.1016 20.7702L19.1071 20.7654L19.1125 20.7606L19.1226 20.7517C19.2627 20.6272 19.7584 20.1868 20.3603 19.5282L23.8508 18.5005C23.4694 18.77 23.07 19.1116 22.7831 19.5181L22.7829 19.5184C22.4521 19.9873 22.1389 20.4993 21.8448 20.9803L21.7164 21.1899C21.3757 21.7451 21.0554 22.2529 20.7153 22.6923C20.0296 23.5779 19.4077 24 18.656 24H8.50998C5.71639 24 3.38097 21.8571 3.04221 19.0517H7.05846C7.10993 19.3147 7.19692 19.5721 7.31857 19.8169C7.82122 20.8506 8.86337 21.5043 9.99999 21.5043H12.8H13.8V20.5043V18.2778V17.2778H12.8ZM13.1001 11.1753L13.1001 11.1754L11.5322 17.2778L13.1001 11.1753ZM11.7042 6.1477L11.716 6.15259L11.7097 6.15002L11.7042 6.1477ZM4.16065 15.8335H4.15747H3.86137H3.85258H3.57556C3.43556 15.8335 3.35356 15.6787 3.42757 15.5625L3.51155 15.4281L3.57556 15.3261L3.85544 14.8802L3.88474 14.8335L8.10396 8.11081L8.14451 8.04619L8.44089 7.57396L8.44157 7.57287L8.57556 7.35938C8.64957 7.24125 8.82357 7.25347 8.87955 7.38179C8.91288 7.45786 8.94602 7.53466 8.97893 7.61211L8.97918 7.6127C9.05163 7.78321 9.12292 7.95684 9.19242 8.13271L9.22262 8.20955C9.90758 9.96223 10.4081 11.9221 10.1136 13.2098C9.96757 13.825 9.56757 14.6581 9.11755 15.4281C9.05958 15.5401 8.99557 15.6501 8.92756 15.7561C8.89555 15.805 8.84155 15.8335 8.78354 15.8335H4.43776H4.38129H4.16065ZM5.06538 14.8335L8.55151 9.27885C8.71609 9.75353 8.85942 10.2306 8.96938 10.6914C9.20304 11.6705 9.25763 12.4619 9.13964 12.9829C9.03252 13.4304 8.71782 14.1179 8.30638 14.8335H5.06538Z" fill="white"/>
</g>
</g>
<defs>
<filter id="filter0_d_44_3889" x="-2" y="3" width="32" height="30" filterUnits="userSpaceOnUse" color-interpolation-filters="sRGB">
<feFlood flood-opacity="0" result="BackgroundImageFix"/>
<feColorMatrix in="SourceAlpha" type="matrix" values="0 0 0 0 0 0 0 0 0 0 0 0 0 0 0 0 0 0 127 0" result="hardAlpha"/>
<feOffset dy="4"/>
<feGaussianBlur stdDeviation="2"/>
<feComposite in2="hardAlpha" operator="out"/>
<feColorMatrix type="matrix" values="0 0 0 0 0 0 0 0 0 0 0 0 0 0 0 0 0 0 0.25 0"/>
<feBlend mode="normal" in2="BackgroundImageFix" result="effect1_dropShadow_44_3889"/>
<feBlend mode="normal" in="SourceGraphic" in2="effect1_dropShadow_44_3889" result="shape"/>
</filter>
<clipPath id="clip0_44_3889">
<rect width="28" height="28" fill="white"/>
</clipPath>
</defs>
</svg>
