<svg width="28" height="22" viewBox="0 0 28 22" fill="none" xmlns="http://www.w3.org/2000/svg">
<path d="M10.2908 0.00379039C10.2908 0.00379039 6.41516 0.286825 3.88054 2.45001C3.86865 2.45507 3.85439 2.46265 3.8425 2.47023C3.40263 2.90236 3.07213 3.57204 2.66316 4.53234C2.2542 5.49263 1.82146 6.72838 1.42676 8.1107C0.639748 10.8779 0.000148759 14.2743 0.000148759 17.471C-0.00222878 17.5848 0.023926 17.696 0.0762349 17.7945C0.965492 19.4548 2.60134 20.4581 4.12782 21.0898C5.6543 21.7216 7.06427 21.9743 7.77996 21.9996C7.98206 22.0072 8.17465 21.9086 8.29354 21.7368L9.77722 19.5534C10.9732 19.8541 12.376 20.0588 14 20.0588C15.624 20.0588 17.0268 19.8541 18.2228 19.5534L19.7065 21.7368C19.8253 21.9086 20.0179 22.0072 20.22 21.9996C20.9357 21.9743 22.3457 21.7216 23.8722 21.0898C25.3987 20.4581 27.0345 19.4548 27.9238 17.7945C27.9761 17.696 28.0022 17.5848 27.9999 17.471C27.9999 14.2743 27.3603 10.8779 26.5732 8.1107C26.1785 6.72838 25.7458 5.49263 25.3368 4.53234C24.9279 3.57204 24.5974 2.90236 24.1575 2.47023C24.1456 2.46265 24.1313 2.45507 24.1195 2.45001C21.5848 0.286825 17.7092 0.00379039 17.7092 0.00379039C17.664 -0.00126346 17.6212 -0.00126346 17.576 0.00379039C17.3644 0.0341155 17.1861 0.180687 17.1005 0.387908C17.1005 0.387908 16.8937 0.870583 16.7581 1.56048C15.5717 1.35831 14.573 1.29766 14 1.29766C13.427 1.29766 12.4283 1.35831 11.2419 1.56048C11.1063 0.870583 10.8995 0.387908 10.8995 0.387908C10.7949 0.135199 10.55 -0.0189533 10.2908 0.00379039ZM9.91037 1.39874C9.95555 1.53015 9.98646 1.65398 10.0245 1.80308C8.65257 2.14171 7.14987 2.69514 5.74465 3.62258C5.52353 3.72114 5.37849 3.94858 5.37136 4.20382C5.3666 4.45653 5.50213 4.69154 5.71612 4.80274C5.93249 4.9114 6.18928 4.87855 6.37236 4.71429C9.19231 2.85688 12.7802 2.59153 14 2.59153C15.2198 2.59153 18.8077 2.85688 21.6276 4.71429C21.8107 4.87855 22.0675 4.9114 22.2839 4.80274C22.4979 4.69154 22.6334 4.45653 22.6286 4.20382C22.6215 3.94858 22.4765 3.72114 22.2553 3.62258C20.8501 2.69514 19.3474 2.14171 17.9755 1.80308C18.0135 1.65398 18.0445 1.53015 18.0896 1.39874C18.7839 1.48972 21.4826 1.87636 23.3206 3.42042C23.4394 3.53666 23.8532 4.1836 24.2336 5.07819C24.614 5.97278 25.0135 7.13777 25.3939 8.4746C26.1357 11.0826 26.7349 14.2995 26.7635 17.2487C26.0715 18.4389 24.7733 19.3234 23.4347 19.8768C22.2173 20.3797 21.0808 20.6046 20.4863 20.6653L19.4592 19.1895C19.9823 19.01 20.4531 18.8155 20.8668 18.6234C22.4028 17.9057 23.2254 17.1476 23.2254 17.1476C23.4775 16.9075 23.4989 16.4956 23.273 16.2277C23.0471 15.9598 22.6596 15.9371 22.4075 16.1772C22.4075 16.1772 21.7703 16.7963 20.3722 17.4508C19.8586 17.6909 19.2357 17.9284 18.5271 18.1382C18.3631 18.118 18.199 18.1685 18.0706 18.2797C16.9364 18.5729 15.5883 18.7649 14 18.7649C12.3998 18.7649 11.0493 18.5552 9.91037 18.2595C9.78197 18.1685 9.62505 18.1306 9.47287 18.1584C8.76194 17.9487 8.14374 17.6909 7.62779 17.4508C6.2297 16.7963 5.59248 16.1772 5.59248 16.1772C5.45457 16.0407 5.26436 15.9826 5.0789 16.0154C4.84351 16.0533 4.64854 16.2328 4.58434 16.4779C4.51776 16.7205 4.59385 16.9833 4.77455 17.1476C4.77455 17.1476 5.59724 17.9057 7.13322 18.6234C7.54694 18.8155 8.01773 19.01 8.54082 19.1895L7.51366 20.6653C6.91923 20.6046 5.7827 20.3797 4.56532 19.8768C3.22668 19.3234 1.92846 18.4389 1.23655 17.2487C1.26508 14.2995 1.86426 11.0826 2.6061 8.4746C2.98653 7.13777 3.38598 5.97278 3.76641 5.07819C4.14684 4.1836 4.56056 3.53666 4.67945 3.42042C6.5174 1.87636 9.21608 1.48972 9.91037 1.39874ZM10.0435 9.06089C8.49089 9.06089 7.30442 10.5595 7.30442 12.2956C7.30442 14.0317 8.49089 15.5302 10.0435 15.5302C11.5962 15.5302 12.7826 14.0317 12.7826 12.2956C12.7826 10.5595 11.5962 9.06089 10.0435 9.06089ZM17.9565 9.06089C16.4038 9.06089 15.2174 10.5595 15.2174 12.2956C15.2174 14.0317 16.4038 15.5302 17.9565 15.5302C19.5091 15.5302 20.6956 14.0317 20.6956 12.2956C20.6956 10.5595 19.5091 9.06089 17.9565 9.06089ZM10.0435 10.3548C10.8448 10.3548 11.5652 11.1735 11.5652 12.2956C11.5652 13.4176 10.8448 14.2364 10.0435 14.2364C9.24224 14.2364 8.5218 13.4176 8.5218 12.2956C8.5218 11.1735 9.24224 10.3548 10.0435 10.3548ZM17.9565 10.3548C18.7578 10.3548 19.4782 11.1735 19.4782 12.2956C19.4782 13.4176 18.7578 14.2364 17.9565 14.2364C17.1552 14.2364 16.4348 13.4176 16.4348 12.2956C16.4348 11.1735 17.1552 10.3548 17.9565 10.3548Z" fill="white"/>
</svg>
