<svg width="186" height="18" viewBox="0 0 186 18" fill="none" xmlns="http://www.w3.org/2000/svg">
<path d="M3.03637 16.836H5.88837V2.714H8.64837V0.23H0.276367V2.714H3.03637V16.836Z" fill="white"/>
<path d="M10.3198 12.811C10.3198 15.157 11.6998 17.066 14.6898 17.066C17.6798 17.066 19.0598 15.157 19.0598 12.811V4.255C19.0598 1.909 17.6798 0 14.6898 0C11.6998 0 10.3198 1.909 10.3198 4.255V12.811ZM13.1718 4.324C13.1718 3.082 13.5398 2.484 14.6898 2.484C15.8398 2.484 16.2078 3.082 16.2078 4.324V12.742C16.2078 13.984 15.8398 14.582 14.6898 14.582C13.5398 14.582 13.1718 13.984 13.1718 12.742V4.324Z" fill="white"/>
<path d="M25.7528 10.672H27.5698V12.282C27.5698 13.938 27.1558 14.582 26.0058 14.582C25.0168 14.582 24.6718 13.892 24.6718 12.834V4.301C24.6718 2.898 25.2468 2.484 25.9368 2.484C27.0638 2.484 27.5698 3.128 27.5698 5.612H30.2838V4.554C30.2838 2.07 28.8578 0 26.0058 0C23.1998 0 21.8198 1.909 21.8198 4.255V12.811C21.8198 15.456 23.3838 17.066 25.6378 17.066C26.9718 17.066 27.6618 16.606 28.5128 15.594L29.0418 16.836H30.4218V8.418H25.7528V10.672Z" fill="white"/>
<path d="M41.2778 16.836V14.352H36.1718V9.476H39.8518V6.992H36.1718V2.714H40.9558V0.23H33.3198V16.836H41.2778Z" fill="white"/>
<path d="M45.1955 16.836H48.0475V2.714H50.8075V0.23H42.4355V2.714H45.1955V16.836Z" fill="white"/>
<path d="M55.331 16.836V9.476H58.367V16.836H61.219V0.23H58.367V6.992H55.331V0.23H52.479V16.836H55.331Z" fill="white"/>
<path d="M71.937 16.836V14.352H66.831V9.476H70.511V6.992H66.831V2.714H71.615V0.23H63.979V16.836H71.937Z" fill="white"/>
<path d="M77.0507 2.576H78.0627C79.6037 2.576 80.1787 3.151 80.1787 5.129C80.1787 7.107 79.6037 7.682 78.0627 7.682H77.0507V2.576ZM77.0507 10.028C77.5567 10.028 78.1547 10.005 78.5227 9.959L80.5467 16.836H83.4447L81.0297 9.315C81.9957 8.878 83.0307 7.797 83.0307 5.129C83.0307 1.587 81.3977 0.23 78.2007 0.23H74.1987V16.836H77.0507V10.028Z" fill="white"/>
<path d="M97.069 10.718L99.852 4.232H99.898V10.718H97.069ZM99.852 16.836H102.474V12.834H103.992V10.718H102.474V0.23H99.714L94.884 10.718V12.834H99.852V16.836Z" fill="white"/>
<path d="M116.313 12.65C116.313 15.502 117.969 17.066 120.683 17.066C123.397 17.066 125.053 15.502 125.053 12.65V0.23H122.201V12.765C122.201 13.984 121.718 14.582 120.683 14.582C119.648 14.582 119.165 13.984 119.165 12.765V0.23H116.313V12.65Z" fill="white"/>
<path d="M130.527 16.836V10.948L131.539 9.108H131.585L133.908 16.836H136.806L133.333 6.417L136.415 0.23H133.563L130.573 6.371H130.527V0.23H127.675V16.836H130.527Z" fill="white"/>
<path d="M140.885 2.576H141.897C143.438 2.576 144.013 3.151 144.013 5.129C144.013 7.107 143.438 7.682 141.897 7.682H140.885V2.576ZM140.885 10.028C141.391 10.028 141.989 10.005 142.357 9.959L144.381 16.836H147.279L144.864 9.315C145.83 8.878 146.865 7.797 146.865 5.129C146.865 1.587 145.232 0.23 142.035 0.23H138.033V16.836H140.885V10.028Z" fill="white"/>
<path d="M153.236 3.542H153.282L154.409 10.672H152.109L153.236 3.542ZM151.695 13.156H154.823L155.329 16.836H158.089L155.03 0.23H151.488L148.429 16.836H151.189L151.695 13.156Z" fill="white"/>
<path d="M162.995 16.836V0.23H160.143V16.836H162.995Z" fill="white"/>
<path d="M168.73 16.836V6.463H168.776L172.41 16.836H174.894V0.23H172.318V9.729H172.272L168.799 0.23H166.154V16.836H168.73Z" fill="white"/>
<path d="M185.612 16.836V14.352H180.506V9.476H184.186V6.992H180.506V2.714H185.29V0.23H177.654V16.836H185.612Z" fill="white"/>
</svg>
